# xmcd
#
# Track frame offsets: 
#        150
#        9138
#        17700
#        24225
#        27641
#        32610
#        43974
#        63222
#        65858
#        69224
#        81375
#        105912
#        110668
#        112053
#        115272
#        119504
#        126513
#        129942
#        142848
#        156405
#        162159
#        171928
#        179668
#        184474
#        187312
#        193696
#        200214
#        219328
#        222220
#        232395
#        243631
#
# Disc length: 3328 seconds
#
# Revision: 0
# Processed by: cddbd v1.5.1PL0 Copyright (c) Steve Scherf et al.
# Submitted via: ExactAudioCopy v0.95b2
#
DISCID=dc0cfe1f
DTITLE=Matt Glaser - Texas and Swing Fiddle CD1
DYEAR=1900
DGENRE=Country
TTITLE0=Applacian and Texas Fiddle Discussed
TTITLE1=Sally Goodin - Applacian Version
TTITLE2=Sally Goodin - Texas Version
TTITLE3=Tuning
TTITLE4=Forked Deer - Played
TTITLE5=Forked Deer - First Part Broken Down
TTITLE6=Forked Deer - Second Part Broken Down
TTITLE7=Salt River - Explained
TTITLE8=Salt River - Played
TTITLE9=Salt River - First Part Broken Down
TTITLE10=Salt River - Second Part Broken Down
TTITLE11=Smith's Reel - Explained
TTITLE12=Smith's Reel - Played
TTITLE13=Smith's Reel - Creating a Bass Line
TTITLE14=Smith's Reel - Played with Texas Backup
TTITLE15=Smith's Reel - Texas Backup Playing Discussed
TTITLE16=Smith's Reel - Played up to Tempo With Chops
TTITLE17=Smith's Reel - First Part Broken Down
TTITLE18=Smith's Reel - Second Part Broken Down
TTITLE19=Leather Britches - Played
TTITLE20=Leather Britches - First Part - Reversing Patterns
TTITLE21=Leather Britches - Second Part Broken Down
TTITLE22=Leather Britches - Using Open Strings
TTITLE23=Miller's Reel - Explained
TTITLE24=Miller's Reel - Played
TTITLE25=Miller's Reel - First Part Broken Down
TTITLE26=Miller's Reel - Second Part Broken Down
TTITLE27=Miller's Reel - Tag
TTITLE28=Miller's Reel - Whole Tune Played Slowly
TTITLE29=Texas Tunes Discussed
TTITLE30=Blue Eagle
EXTD=
EXTT0=
EXTT1=
EXTT2=
EXTT3=
EXTT4=
EXTT5=
EXTT6=
EXTT7=
EXTT8=
EXTT9=
EXTT10=
EXTT11=
EXTT12=
EXTT13=
EXTT14=
EXTT15=
EXTT16=
EXTT17=
EXTT18=
EXTT19=
EXTT20=
EXTT21=
EXTT22=
EXTT23=
EXTT24=
EXTT25=
EXTT26=
EXTT27=
EXTT28=
EXTT29=
EXTT30=
PLAYORDER=
